<?xml version="1.0" encoding="UTF-8"?>
<svg id="Capa_2" data-name="Capa 2" xmlns="http://www.w3.org/2000/svg" viewBox="0 0 115.4 99.12">
  <defs>
    <style>
      .cls-1, .cls-2 {
        fill: #fff;
      }

      .cls-3 {
        letter-spacing: 0em;
      }

      .cls-2 {
        font-family: CocogoosePro-Thin, 'Cocogoose Pro';
        font-size: 14.39px;
      }

      .cls-4 {
        letter-spacing: -.08em;
      }
    </style>
  </defs>
  <g id="Capa_2-2" data-name="Capa 2">
    <g>
      <g>
        <path class="cls-1" d="M56.53,35.82c0,6.14-1.23,11.89-3.68,17.26-2.46,5.37-5.79,10.06-10.01,14.06-4.22,4-9.15,7.15-14.78,9.46-5.64,2.3-11.64,3.45-18,3.45-1.59,0-3.2-.08-4.82-.25-1.63-.17-3.37-.42-5.24-.75l4.15-19.91c1.04,.2,1.97,.33,2.8,.4,.83,.07,1.62,.1,2.39,.1,3.53,0,6.86-.65,10.01-1.95,3.15-1.3,5.89-3.05,8.25-5.25,2.35-2.2,4.2-4.8,5.55-7.81,1.35-3,2.02-6.2,2.02-9.61V0h21.37V35.82Z"/>
        <path class="cls-1" d="M58.87,0h21.37V35.02c0,3.4,.67,6.6,2.02,9.61,1.35,3,3.2,5.6,5.55,7.81,2.35,2.2,5.1,3.95,8.25,5.25,3.15,1.3,6.48,1.95,10.01,1.95,.76,0,1.56-.03,2.39-.1,.83-.07,1.76-.2,2.8-.4l4.15,19.91c-1.87,.33-3.61,.58-5.24,.75-1.62,.17-3.23,.25-4.82,.25-6.36,0-12.36-1.15-18-3.45-5.64-2.3-10.56-5.45-14.78-9.46-4.22-4-7.55-8.69-10.01-14.06-2.45-5.37-3.68-11.12-3.68-17.26V0Z"/>
      </g>
      <text class="cls-2" transform="translate(14.27 95.32)"><tspan x="0" y="0">DEVE</tspan><tspan class="cls-4" x="39.31" y="0">L</tspan><tspan class="cls-3" x="46.53" y="0">OPER</tspan></text>
    </g>
  </g>
</svg>